<svg width="512" height="512" viewBox="0 0 512 512" fill="none" xmlns="http://www.w3.org/2000/svg">
  <!-- Background with rounded corners -->
  <rect width="512" height="512" rx="80" fill="url(#backgroundGradient)"/>
  
  <!-- Main circle with gradient -->
  <circle cx="256" cy="256" r="160" fill="url(#circleGradient)" stroke="white" stroke-width="8" opacity="0.95"/>
  
  <!-- Inner circle for depth -->
  <circle cx="256" cy="256" r="140" fill="url(#innerGradient)" opacity="0.3"/>
  
  <!-- Checkmark with shadow -->
  <g filter="url(#shadow)">
    <path d="M200 256L240 296L320 216" stroke="white" stroke-width="20" stroke-linecap="round" stroke-linejoin="round"/>
  </g>
  
  <!-- Decorative elements -->
  <circle cx="180" cy="180" r="12" fill="white" opacity="0.8"/>
  <circle cx="332" cy="180" r="12" fill="white" opacity="0.8"/>
  <circle cx="180" cy="332" r="12" fill="white" opacity="0.8"/>
  <circle cx="332" cy="332" r="12" fill="white" opacity="0.8"/>
  
  <!-- Sparkle effects -->
  <g opacity="0.6">
    <path d="M120 120L130 130L120 140L110 130L120 120Z" fill="white"/>
    <path d="M392 120L402 130L392 140L382 130L392 120Z" fill="white"/>
    <path d="M120 392L130 402L120 412L110 402L120 392Z" fill="white"/>
    <path d="M392 392L402 402L392 412L382 402L392 392Z" fill="white"/>
  </g>
  
  <!-- Inner glow -->
  <circle cx="256" cy="256" r="80" fill="url(#glowGradient)" opacity="0.4"/>
  
  <defs>
    <!-- Background gradient -->
    <linearGradient id="backgroundGradient" x1="0%" y1="0%" x2="100%" y2="100%">
      <stop offset="0%" style="stop-color:#0f172a;stop-opacity:1" />
      <stop offset="50%" style="stop-color:#1e293b;stop-opacity:1" />
      <stop offset="100%" style="stop-color:#0f172a;stop-opacity:1" />
    </linearGradient>
    
    <!-- Main circle gradient (teal to orange) -->
    <linearGradient id="circleGradient" x1="0%" y1="0%" x2="100%" y2="100%">
      <stop offset="0%" style="stop-color:#14b8a6;stop-opacity:1" />
      <stop offset="30%" style="stop-color:#0d9488;stop-opacity:1" />
      <stop offset="70%" style="stop-color:#fb923c;stop-opacity:1" />
      <stop offset="100%" style="stop-color:#ea580c;stop-opacity:1" />
    </linearGradient>
    
    <!-- Inner circle gradient -->
    <radialGradient id="innerGradient" cx="50%" cy="50%" r="50%">
      <stop offset="0%" style="stop-color:#ffffff;stop-opacity:0.4" />
      <stop offset="100%" style="stop-color:#ffffff;stop-opacity:0" />
    </radialGradient>
    
    <!-- Glow gradient -->
    <radialGradient id="glowGradient" cx="50%" cy="50%" r="50%">
      <stop offset="0%" style="stop-color:#ffffff;stop-opacity:0.8" />
      <stop offset="100%" style="stop-color:#ffffff;stop-opacity:0" />
    </radialGradient>
    
    <!-- Shadow filter -->
    <filter id="shadow" x="-20%" y="-20%" width="140%" height="140%">
      <feDropShadow dx="0" dy="4" stdDeviation="8" flood-color="#000000" flood-opacity="0.3"/>
    </filter>
  </defs>
</svg>
